<?xml version="1.0" encoding="UTF-8" standalone="no"?>
<!DOCTYPE svg PUBLIC "-//W3C//DTD SVG 1.1//EN"
"http://www.w3.org/Graphics/SVG/1.1/DTD/svg11.dtd">
<!-- Generated by graphviz version 7.1.0 (0)
-->
<!-- Title: ml Pages: 1 -->
<svg xmlns="http://www.w3.org/2000/svg">
    <g id="graph0" class="graph" transform="scale(1 1) rotate(0) translate(4 217)">
        <title>ml</title>
        <!--<polygon fill="white" stroke="none" points="-4,4 -4,-217 2841.5,-217 2841.5,4 -4,4"/>-->
        <!-- ndScorer -->
        <g id="node1" class="node">
            <title>ndScorer</title>
            <polygon fill="lightgreen" stroke="none" points="348.5,-170.5 348.5,-207.5 413.5,-207.5 413.5,-170.5 348.5,-170.5"/>
            <polygon fill="none" stroke="black" points="348.5,-170.5 348.5,-207.5 413.5,-207.5 413.5,-170.5 348.5,-170.5"/>
            <text text-anchor="start" x="359.5" y="-186.3" font-family="Arial" font-weight="bold" font-size="14.00">Scorer</text>
            <polygon fill="none" stroke="black" points="347,-170 347,-209 414,-209 414,-170 347,-170"/>
        </g>
        <!-- ndMetric -->
        <g id="node2" class="node">
            <title>ndMetric</title>
            <polygon fill="yellow" stroke="none" points="417.5,-87.5 417.5,-124.5 480.5,-124.5 480.5,-87.5 417.5,-87.5"/>
            <polygon fill="none" stroke="black" points="417.5,-87.5 417.5,-124.5 480.5,-124.5 480.5,-87.5 417.5,-87.5"/>
            <text text-anchor="start" x="428.5" y="-103.3" font-family="Arial" font-weight="bold" font-size="14.00">Metric</text>
            <polygon fill="none" stroke="black" points="416,-87 416,-126 481,-126 481,-87 416,-87"/>
        </g>
        <!-- ndScorer&#45;&gt;ndMetric -->
        <g id="edge1" class="edge">
            <title>ndScorer&#45;&gt;ndMetric</title>
            <path fill="none" stroke="black" stroke-dasharray="5,2" d="M399.08,-166.37C406.29,-157.78 414.68,-147.79 422.47,-138.5"/>
            <polygon fill="none" stroke="black" points="424.98,-140.96 428.73,-131.05 419.62,-136.46 424.98,-140.96"/>
        </g>
        <!-- ndCorrectness -->
        <g id="node4" class="node">
            <title>ndCorrectness</title>
            <polygon fill="lightblue" stroke="none" points="553.5,-4.5 553.5,-41.5 654.5,-41.5 654.5,-4.5 553.5,-4.5"/>
            <polygon fill="none" stroke="black" points="553.5,-4.5 553.5,-41.5 654.5,-41.5 654.5,-4.5 553.5,-4.5"/>
            <text text-anchor="start" x="564.5" y="-20.3" font-family="Arial" font-weight="bold" font-size="14.00">Correctness</text>
            <polygon fill="none" stroke="black" points="552,-4 552,-43 655,-43 655,-4 552,-4"/>
        </g>
        <!-- ndScorer&#45;&gt;ndCorrectness -->
        <g id="edge2" class="edge">
            <title>ndScorer&#45;&gt;ndCorrectness</title>
            <path fill="none" stroke="black" stroke-dasharray="5,2" d="M421.85,-171.73C445.1,-161.37 474.08,-146.84 497.5,-130 527.65,-108.32 557.19,-77.94 577.4,-55.34"/>
            <polygon fill="none" stroke="black" points="579.95,-57.75 583.93,-47.93 574.7,-53.12 579.95,-57.75"/>
        </g>
        <!-- ndBusFactor -->
        <g id="node5" class="node">
            <title>ndBusFactor</title>
            <polygon fill="lightblue" stroke="none" points="9.5,-4.5 9.5,-41.5 98.5,-41.5 98.5,-4.5 9.5,-4.5"/>
            <polygon fill="none" stroke="black" points="9.5,-4.5 9.5,-41.5 98.5,-41.5 98.5,-4.5 9.5,-4.5"/>
            <text text-anchor="start" x="20.5" y="-20.3" font-family="Arial" font-weight="bold" font-size="14.00">BusFactor</text>
            <polygon fill="none" stroke="black" points="8,-4 8,-43 99,-43 99,-4 8,-4"/>
        </g>
        <!-- ndScorer&#45;&gt;ndBusFactor -->
        <g id="edge3" class="edge">
            <title>ndScorer&#45;&gt;ndBusFactor</title>
            <path fill="none" stroke="black" stroke-dasharray="5,2" d="M339.14,-169.02C315.45,-157.78 285.21,-143.28 258.5,-130 206.46,-104.14 147.5,-73.67 106.22,-52.15"/>
            <polygon fill="none" stroke="black" points="107.95,-49.1 97.46,-47.58 104.71,-55.31 107.95,-49.1"/>
        </g>
        <!-- ndRampUpTime -->
        <g id="node6" class="node">
            <title>ndRampUpTime</title>
            <polygon fill="lightblue" stroke="none" points="134.5,-4.5 134.5,-41.5 245.5,-41.5 245.5,-4.5 134.5,-4.5"/>
            <polygon fill="none" stroke="black" points="134.5,-4.5 134.5,-41.5 245.5,-41.5 245.5,-4.5 134.5,-4.5"/>
            <text text-anchor="start" x="145.5" y="-20.3" font-family="Arial" font-weight="bold" font-size="14.00">RampUpTime</text>
            <polygon fill="none" stroke="black" points="133,-4 133,-43 246,-43 246,-4 133,-4"/>
        </g>
        <!-- ndScorer&#45;&gt;ndRampUpTime -->
        <g id="edge4" class="edge">
            <title>ndScorer&#45;&gt;ndRampUpTime</title>
            <path fill="none" stroke="black" stroke-dasharray="5,2" d="M354.34,-166.04C320.58,-137.05 261.71,-86.51 224.23,-54.32"/>
            <polygon fill="none" stroke="black" points="226.66,-51.8 216.8,-47.94 222.1,-57.11 226.66,-51.8"/>
        </g>
        <!-- ndResponsiveness -->
        <g id="node7" class="node">
            <title>ndResponsiveness</title>
            <polygon fill="lightblue" stroke="none" points="281.5,-4.5 281.5,-41.5 410.5,-41.5 410.5,-4.5 281.5,-4.5"/>
            <polygon fill="none" stroke="black" points="281.5,-4.5 281.5,-41.5 410.5,-41.5 410.5,-4.5 281.5,-4.5"/>
            <text text-anchor="start" x="292.5" y="-20.3" font-family="Arial" font-weight="bold" font-size="14.00">Responsiveness</text>
            <polygon fill="none" stroke="black" points="280,-4 280,-43 411,-43 411,-4 280,-4"/>
        </g>
        <!-- ndScorer&#45;&gt;ndResponsiveness -->
        <g id="edge5" class="edge">
            <title>ndScorer&#45;&gt;ndResponsiveness</title>
            <path fill="none" stroke="black" stroke-dasharray="5,2" d="M375.71,-166.04C369.75,-138.15 359.55,-90.31 352.66,-58.06"/>
            <polygon fill="none" stroke="black" points="356.12,-57.48 350.61,-48.43 349.27,-58.94 356.12,-57.48"/>
        </g>
        <!-- ndLicenseCompatibility -->
        <g id="node10" class="node">
            <title>ndLicenseCompatibility</title>
            <polygon fill="lightblue" stroke="none" points="690.5,-4.5 690.5,-41.5 849.5,-41.5 849.5,-4.5 690.5,-4.5"/>
            <polygon fill="none" stroke="black" points="690.5,-4.5 690.5,-41.5 849.5,-41.5 849.5,-4.5 690.5,-4.5"/>
            <text text-anchor="start" x="701.5" y="-20.3" font-family="Arial" font-weight="bold" font-size="14.00">LicenseCompatibility</text>
            <polygon fill="none" stroke="black" points="689,-4 689,-43 850,-43 850,-4 689,-4"/>
        </g>
        <!-- ndScorer&#45;&gt;ndLicenseCompatibility -->
        <g id="edge6" class="edge">
            <title>ndScorer&#45;&gt;ndLicenseCompatibility</title>
            <path fill="none" stroke="black" stroke-dasharray="5,2" d="M421.74,-174.17C453.81,-162.8 499.3,-146.18 538.5,-130 598.74,-105.13 666.43,-73.81 712.88,-51.77"/>
            <polygon fill="none" stroke="black" points="714.15,-55.05 721.68,-47.59 711.15,-48.72 714.15,-55.05"/>
        </g>
        <!-- ndMetrics -->
        <g id="node3" class="node">
            <title>ndMetrics</title>
            <polygon fill="lightblue" stroke="none" points="446.5,-4.5 446.5,-41.5 517.5,-41.5 517.5,-4.5 446.5,-4.5"/>
            <polygon fill="none" stroke="black" points="446.5,-4.5 446.5,-41.5 517.5,-41.5 517.5,-4.5 446.5,-4.5"/>
            <text text-anchor="start" x="457.5" y="-20.3" font-family="Arial" font-weight="bold" font-size="14.00">Metrics</text>
            <polygon fill="none" stroke="black" points="445,-4 445,-43 518,-43 518,-4 445,-4"/>
        </g>
        <!-- ndMetric&#45;&gt;ndMetrics -->
        <g id="edge7" class="edge">
            <title>ndMetric&#45;&gt;ndMetrics</title>
            <path fill="none" stroke="black" d="M457.52,-83.37C460.62,-75.75 464.17,-67.03 467.57,-58.69"/>
            <polygon fill="black" stroke="black" points="467.51,-58.84 466.07,-51.77 472.04,-47.72 473.48,-54.79 467.51,-58.84"/>
        </g>
        <!-- ndMetric&#45;&gt;ndCorrectness -->
        <g id="edge8" class="edge">
            <title>ndMetric&#45;&gt;ndCorrectness</title>
            <path fill="none" stroke="black" d="M488.82,-84.43C508.13,-74.34 531.47,-62.14 552.04,-51.39"/>
            <polygon fill="black" stroke="black" points="560.67,-46.88 553.89,-55.5 556.24,-49.2 551.81,-51.51 551.81,-51.51 551.81,-51.51 556.24,-49.2 549.72,-47.53 560.67,-46.88 560.67,-46.88"/>
        </g>
        <!-- ndMetric&#45;&gt;ndBusFactor -->
        <g id="edge9" class="edge">
            <title>ndMetric&#45;&gt;ndBusFactor</title>
            <path fill="none" stroke="black" d="M408.03,-100.7C346.64,-92.93 226.34,-75.73 116.34,-47.03"/>
            <polygon fill="black" stroke="black" points="106.75,-44.49 117.56,-42.7 111.58,-45.77 116.41,-47.05 116.41,-47.05 116.41,-47.05 111.58,-45.77 115.26,-51.4 106.75,-44.49 106.75,-44.49"/>
        </g>
        <!-- ndMetric&#45;&gt;ndRampUpTime -->
        <g id="edge10" class="edge">
            <title>ndMetric&#45;&gt;ndRampUpTime</title>
            <path fill="none" stroke="black" d="M408.03,-92.84C369.43,-80.77 310.38,-62.3 263.39,-47.61"/>
            <polygon fill="black" stroke="black" points="253.86,-44.63 264.74,-43.32 258.63,-46.12 263.4,-47.61 263.4,-47.61 263.4,-47.61 258.63,-46.12 262.06,-51.91 253.86,-44.63 253.86,-44.63"/>
        </g>
        <!-- ndMetric&#45;&gt;ndResponsiveness -->
        <g id="edge11" class="edge">
            <title>ndMetric&#45;&gt;ndResponsiveness</title>
            <path fill="none" stroke="black" d="M420.08,-83.15C408.15,-73.77 394.13,-62.74 381.49,-52.8"/>
            <polygon fill="black" stroke="black" points="373.83,-46.78 384.47,-49.42 377.76,-49.87 381.69,-52.96 381.69,-52.96 381.69,-52.96 377.76,-49.87 378.9,-56.49 373.83,-46.78 373.83,-46.78"/>
        </g>
        <!-- ndScores -->
        <g id="node9" class="node">
            <title>ndScores</title>
            <polygon fill="lightblue" stroke="none" points="885.5,-4.5 885.5,-41.5 953.5,-41.5 953.5,-4.5 885.5,-4.5"/>
            <polygon fill="none" stroke="black" points="885.5,-4.5 885.5,-41.5 953.5,-41.5 953.5,-4.5 885.5,-4.5"/>
            <text text-anchor="start" x="896.5" y="-20.3" font-family="Arial" font-weight="bold" font-size="14.00">Scores</text>
            <polygon fill="none" stroke="black" points="884.5,-4 884.5,-43 954.5,-43 954.5,-4 884.5,-4"/>
        </g>
        <!-- ndMetric&#45;&gt;ndScores -->
        <g id="edge12" class="edge">
            <title>ndMetric&#45;&gt;ndScores</title>
            <path fill="none" stroke="black" d="M488.81,-103.48C562.22,-99.05 722.48,-85.82 864.34,-47.5"/>
            <polygon fill="black" stroke="black" points="864.26,-47.52 868.98,-42.06 875.83,-44.32 871.11,-49.77 864.26,-47.52"/>
        </g>
        <!-- ndMetric&#45;&gt;ndLicenseCompatibility -->
        <g id="edge13" class="edge">
            <title>ndMetric&#45;&gt;ndLicenseCompatibility</title>
            <path fill="none" stroke="black" d="M488.83,-95.32C534.48,-83.8 610.47,-64.63 671.87,-49.13"/>
            <polygon fill="black" stroke="black" points="681.21,-46.78 672.61,-53.59 676.36,-48 671.51,-49.23 671.51,-49.23 671.51,-49.23 676.36,-48 670.41,-44.86 681.21,-46.78 681.21,-46.78"/>
        </g>
        <!-- ndFakeRepoName -->
        <g id="node8" class="node">
            <title>ndFakeRepoName</title>
            <polygon fill="lightblue" stroke="none" points="1043.5,-87.5 1043.5,-124.5 1168.5,-124.5 1168.5,-87.5 1043.5,-87.5"/>
            <polygon fill="none" stroke="black" points="1043.5,-87.5 1043.5,-124.5 1168.5,-124.5 1168.5,-87.5 1043.5,-87.5"/>
            <text text-anchor="start" x="1054.5" y="-103.3" font-family="Arial" font-weight="bold" font-size="14.00">FakeRepoName</text>
            <polygon fill="none" stroke="black" points="1042,-87 1042,-126 1169,-126 1169,-87 1042,-87"/>
        </g>
        <!-- ndGithubRepositoryName -->
        <g id="node17" class="node">
            <title>ndGithubRepositoryName</title>
            <polygon fill="lightblue" stroke="none" points="832.5,-87.5 832.5,-124.5 1007.5,-124.5 1007.5,-87.5 832.5,-87.5"/>
            <polygon fill="none" stroke="black" points="832.5,-87.5 832.5,-124.5 1007.5,-124.5 1007.5,-87.5 832.5,-87.5"/>
            <text text-anchor="start" x="843.5" y="-103.3" font-family="Arial" font-weight="bold" font-size="14.00">GithubRepositoryName</text>
            <polygon fill="none" stroke="black" points="831,-87 831,-126 1008,-126 1008,-87 831,-87"/>
        </g>
        <!-- ndGithubRepositoryName&#45;&gt;ndScores -->
        <g id="edge14" class="edge">
            <title>ndGithubRepositoryName&#45;&gt;ndScores</title>
            <path fill="none" stroke="black" d="M919.5,-83.37C919.5,-76.1 919.5,-67.84 919.5,-59.85"/>
            <polygon fill="black" stroke="black" points="919.5,-59.79 915.5,-53.79 919.5,-47.79 923.5,-53.79 919.5,-59.79"/>
        </g>
        <!-- ndQueryable -->
        <g id="node23" class="node">
            <title>ndQueryable</title>
            <polygon fill="lightgreen" stroke="none" points="968.5,-170.5 968.5,-207.5 1057.5,-207.5 1057.5,-170.5 968.5,-170.5"/>
            <polygon fill="none" stroke="black" points="968.5,-170.5 968.5,-207.5 1057.5,-207.5 1057.5,-170.5 968.5,-170.5"/>
            <text text-anchor="start" x="979.5" y="-186.3" font-family="Arial" font-weight="bold" font-size="14.00">Queryable</text>
            <polygon fill="none" stroke="black" points="967,-170 967,-209 1058,-209 1058,-170 967,-170"/>
        </g>
        <!-- ndQueryable&#45;&gt;ndFakeRepoName -->
        <g id="edge15" class="edge">
            <title>ndQueryable&#45;&gt;ndFakeRepoName</title>
            <path fill="none" stroke="black" stroke-dasharray="5,2" d="M1037.91,-166.37C1048.18,-157.42 1060.19,-146.96 1071.22,-137.36"/>
            <polygon fill="none" stroke="black" points="1073.41,-140.09 1078.65,-130.88 1068.81,-134.81 1073.41,-140.09"/>
        </g>
        <!-- ndQueryable&#45;&gt;ndGithubRepositoryName -->
        <g id="edge16" class="edge">
            <title>ndQueryable&#45;&gt;ndGithubRepositoryName</title>
            <path fill="none" stroke="black" stroke-dasharray="5,2" d="M987.09,-166.37C976.82,-157.42 964.81,-146.96 953.78,-137.36"/>
            <polygon fill="none" stroke="black" points="956.19,-134.81 946.35,-130.88 951.59,-140.09 956.19,-134.81"/>
        </g>
    </g>
</svg>
